<?xml version="1.0" encoding="UTF-8" standalone="no"?> <!-- Created with Vectornator for iOS (http://vectornator.io/) --><!DOCTYPE svg PUBLIC "-//W3C//DTD SVG 1.1//EN" "http://www.w3.org/Graphics/SVG/1.1/DTD/svg11.dtd">
<svg style="fill-rule:evenodd;clip-rule:evenodd;stroke-linecap:round;stroke-linejoin:round;" xmlns:vectornator="http://vectornator.io" xmlns:xlink="http://www.w3.org/1999/xlink" xmlns="http://www.w3.org/2000/svg" xml:space="preserve" version="1.1" viewBox="0 0 523 145">
<metadata>
<vectornator:setting key="DimensionsVisible" value="1"/>
<vectornator:setting key="SnapToGrid" value="0"/>
<vectornator:setting key="SnapToPoints" value="0"/>
<vectornator:setting key="GuidesVisible" value="1"/>
<vectornator:setting key="RulersVisible" value="1"/>
<vectornator:setting key="CMYKEnabledKey" value="0"/>
<vectornator:setting key="SnapToEdges" value="0"/>
<vectornator:setting key="DisplayWhiteBackground" value="0"/>
<vectornator:setting key="SnapToGuides" value="1"/>
<vectornator:setting key="GridSpacing" value="36"/>
<vectornator:setting key="Units" value="Pixels"/>
<vectornator:setting key="DynamicGuides" value="0"/>
<vectornator:setting key="New" value="1"/>
</metadata>
<defs/>
<g id="Capa 1" vectornator:layerName="Capa 1">
<path stroke="#b64182" stroke-width="4.27" d="M66.6582+43.8688C70.3333+39.3535+76.3735+24.1681+80.0917+19.6883C85.3045+13.4077+84.8261+3.37805+91.58-1.17022C94.7429-3.3002+94.3676-2.16509+95.8432-1.36113C96.3703-1.07393+98.4036+13.1076+98.3843+15.2784C98.2443+30.9591+103.46+46.9256+107.272+62.1443C110.476+74.9361+113.145+87.7972+115.895+100.716C117.314+107.379+119.558+113.186+120.207+120.003C120.572+123.834+120.399+127.748+121.417+131.496C121.652+132.361+123.811+135.5+122.903+136.54C122.744+136.722+117.43+130.296+117.166+129.927C114.157+125.732+110.423+120.646+106.451+117.364C97.5759+110.032+87.0417+104.553+78.0857+97.4263C72.1855+92.7315+67.4965+85.8691+61.9404+80.6593C57.194+76.2086+50.6949+73.0619+45.309+69.356C38.9944+65.0112+33.4363+59.4412+27.0617+55.3043C23.1535+52.768+18.5041+52.118+14.7614+48.8516C12.0639+46.4973+9.61576+43.7037+6.95535+41.236C4.66537+39.1119+1.91371+37.2431+1.96123+37.1451C3.12519+34.7434+24.9086+34.9004+28.117+35.0819C51.0097+36.3768+73.727+37.7297+96.6568+38.4275C110.21+38.84+123.558+37.5852+137.022+37.2567C140.139+37.1806+154.601+34.5656+154.415+36.6463C153.934+42.0599+136.633+53.6863+132.361+57.0095C125.777+62.1324+118.15+65.7011+111.57+70.7128C101.254+78.5699+91.7018+87.0353+81.4971+95.0508C74.5169+100.533+67.0386+104.712+60.2524+110.5C56.0099+114.118+50.3055+115.943+45.8472+119.339C42.7433+121.703+40.1784+125.015+37.2455+127.355C36.2734+128.131+31.6219+131.279+30.4393+130.247C29.0316+129.018+30.5003+123.546+30.7322+121.938C31.8731+114.028+35.2611+107.921+37.7043+100.456C42.5221+85.7366+49.8959+69.7776+58.7613+57.0089C65.9849+46.6048+71.8108+36.3261+77.1594+24.5671" fill="#ffffff" stroke-linecap="round" opacity="1" stroke-linejoin="round"/>
<path stroke="#b64182" stroke-width="4.27" d="M249.376+46.6303C253.051+42.115+259.091+26.9296+262.809+22.4497C268.022+16.1692+267.544+6.13952+274.298+1.59126C277.46-0.538723+277.085+0.596381+278.561+1.40034C279.088+1.68754+281.121+15.8691+281.102+18.0399C280.962+33.7206+286.177+49.687+289.989+64.9058C293.194+77.6976+295.863+90.5587+298.613+103.478C300.031+110.14+302.276+115.948+302.925+122.764C303.289+126.595+303.116+130.51+304.134+134.258C304.369+135.122+306.529+138.261+305.62+139.302C305.462+139.484+300.148+133.058+299.883+132.689C296.875+128.494+293.14+123.408+289.169+120.126C280.294+112.793+269.759+107.314+260.803+100.188C254.903+95.4929+250.214+88.6306+244.658+83.4208C239.912+78.9701+233.412+75.8234+228.027+72.1175C221.712+67.7726+216.154+62.2027+209.779+58.0658C205.871+55.5295+201.222+54.8794+197.479+51.6131C194.781+49.2588+192.333+46.4652+189.673+43.9975C187.383+41.8733+184.631+40.0046+184.679+39.9065C185.843+37.5049+207.626+37.6618+210.835+37.8433C233.727+39.1383+256.445+40.4911+279.374+41.189C292.928+41.6015+306.276+40.3467+319.739+40.0181C322.857+39.942+337.318+37.3271+337.133+39.4078C336.651+44.8213+319.35+56.4478+315.079+59.771C308.495+64.8938+300.868+68.4625+294.287+73.4743C283.972+81.3314+274.419+89.7968+264.215+97.8123C257.234+103.295+249.756+107.474+242.97+113.261C238.727+116.88+233.023+118.705+228.565+122.1C225.461+124.465+222.896+127.777+219.963+130.116C218.991+130.892+214.339+134.041+213.157+133.008C211.749+131.78+213.218+126.307+213.45+124.7C214.591+116.789+217.979+110.682+220.422+103.218C225.24+88.4981+232.613+72.5391+241.479+59.7704C248.702+49.3663+254.528+39.0876+259.877+27.3286" fill="#ffffff" stroke-linecap="round" opacity="1" stroke-linejoin="round"/>
<path stroke="#b64182" stroke-width="4.27" d="M433.474+48.9315C437.149+44.4162+443.189+29.2308+446.908+24.751C452.12+18.4704+451.642+8.44075+458.396+3.89249C461.559+1.76251+461.183+2.89761+462.659+3.70157C463.186+3.98877+465.219+18.1704+465.2+20.3411C465.06+36.0218+470.276+51.9883+474.088+67.207C477.292+79.9988+479.961+92.8599+482.711+105.779C484.129+112.441+486.374+118.249+487.023+125.065C487.387+128.896+487.215+132.811+488.233+136.559C488.467+137.423+490.627+140.562+489.719+141.603C489.56+141.785+484.246+135.359+483.982+134.99C480.973+130.795+477.239+125.709+473.267+122.427C464.392+115.094+453.857+109.615+444.902+102.489C439.001+97.7942+434.312+90.9318+428.756+85.722C424.01+81.2713+417.511+78.1246+412.125+74.4187C405.81+70.0739+400.252+64.5039+393.878+60.367C389.969+57.8307+385.32+57.1807+381.577+53.9143C378.88+51.56+376.432+48.7664+373.771+46.2987C371.481+44.1746+368.73+42.3058+368.777+42.2078C369.941+39.8061+391.724+39.9631+394.933+40.1446C417.826+41.4395+440.543+42.7924+463.473+43.4902C477.026+43.9027+490.374+42.6479+503.837+42.3194C506.955+42.2433+521.416+39.6283+521.231+41.709C520.75+47.1226+503.449+58.749+499.177+62.0722C492.593+67.1951+484.966+70.7638+478.386+75.7756C468.07+83.6326+458.518+92.098+448.313+100.114C441.333+105.596+433.854+109.775+427.068+115.563C422.826+119.181+417.121+121.006+412.663+124.402C409.559+126.766+406.994+130.078+404.061+132.418C403.089+133.193+398.438+136.342+397.255+135.31C395.847+134.081+397.316+128.609+397.548+127.001C398.689+119.091+402.077+112.983+404.52+105.519C409.338+90.7993+416.712+74.8403+425.577+62.0716C432.801+51.6675+438.627+41.3889+443.975+29.6298" fill="#ffffff" stroke-linecap="round" opacity="1" stroke-linejoin="round"/>
</g>
</svg>
