<?xml version="1.0" encoding="UTF-8" standalone="no"?> <!-- Created with Vectornator for iOS (http://vectornator.io/) --><!DOCTYPE svg PUBLIC "-//W3C//DTD SVG 1.1//EN" "http://www.w3.org/Graphics/SVG/1.1/DTD/svg11.dtd">
<svg style="fill-rule:evenodd;clip-rule:evenodd;stroke-linecap:round;stroke-linejoin:round;" xmlns:vectornator="http://vectornator.io" xmlns:xlink="http://www.w3.org/1999/xlink" xmlns="http://www.w3.org/2000/svg" xml:space="preserve" version="1.1" viewBox="0 0 523 145">
<metadata>
<vectornator:setting key="DimensionsVisible" value="1"/>
<vectornator:setting key="SnapToGrid" value="0"/>
<vectornator:setting key="SnapToPoints" value="0"/>
<vectornator:setting key="GuidesVisible" value="1"/>
<vectornator:setting key="RulersVisible" value="1"/>
<vectornator:setting key="CMYKEnabledKey" value="0"/>
<vectornator:setting key="SnapToEdges" value="0"/>
<vectornator:setting key="DisplayWhiteBackground" value="0"/>
<vectornator:setting key="SnapToGuides" value="1"/>
<vectornator:setting key="GridSpacing" value="36"/>
<vectornator:setting key="Units" value="Pixels"/>
<vectornator:setting key="DynamicGuides" value="0"/>
<vectornator:setting key="New" value="1"/>
</metadata>
<defs/>
<g id="Capa 1" vectornator:layerName="Capa 1">
<path stroke="#b64182" stroke-width="4.27" d="M66.6582+43.8688C70.3333+39.3535+76.3735+24.1681+80.0917+19.6883C85.3045+13.4077+84.8261+3.37805+91.58-1.17022C94.7429-3.3002+94.3676-2.16509+95.8432-1.36113C96.3703-1.07393+98.4036+13.1076+98.3843+15.2784C98.2443+30.9591+103.46+46.9256+107.272+62.1443C110.476+74.9361+113.145+87.7972+115.895+100.716C117.314+107.379+119.558+113.186+120.207+120.003C120.572+123.834+120.399+127.748+121.417+131.496C121.652+132.361+123.811+135.5+122.903+136.54C122.744+136.722+117.43+130.296+117.166+129.927C114.157+125.732+110.423+120.646+106.451+117.364C97.5759+110.032+87.0417+104.553+78.0857+97.4263C72.1855+92.7315+67.4965+85.8691+61.9404+80.6593C57.194+76.2086+50.6949+73.0619+45.309+69.356C38.9944+65.0112+33.4363+59.4412+27.0617+55.3043C23.1535+52.768+18.5041+52.118+14.7614+48.8516C12.0639+46.4973+9.61576+43.7037+6.95535+41.236C4.66537+39.1119+1.91371+37.2431+1.96123+37.1451C3.12519+34.7434+24.9086+34.9004+28.117+35.0819C51.0097+36.3768+73.727+37.7297+96.6568+38.4275C110.21+38.84+123.558+37.5852+137.022+37.2567C140.139+37.1806+154.601+34.5656+154.415+36.6463C153.934+42.0599+136.633+53.6863+132.361+57.0095C125.777+62.1324+118.15+65.7011+111.57+70.7128C101.254+78.5699+91.7018+87.0353+81.4971+95.0508C74.5169+100.533+67.0386+104.712+60.2524+110.5C56.0099+114.118+50.3055+115.943+45.8472+119.339C42.7433+121.703+40.1784+125.015+37.2455+127.355C36.2734+128.131+31.6219+131.279+30.4393+130.247C29.0316+129.018+30.5003+123.546+30.7322+121.938C31.8731+114.028+35.2611+107.921+37.7043+100.456C42.5221+85.7366+49.8959+69.7776+58.7613+57.0089C65.9849+46.6048+71.8108+36.3261+77.1594+24.5671" fill="#ffffff" stroke-linecap="round" opacity="1" stroke-linejoin="round"/>
</g>
</svg>
